<svg width="5360" height="2347" viewBox="0 0 5360 2347" fill="none" xmlns="http://www.w3.org/2000/svg">
<g clip-path="url(#clip0_247_2)">
<path d="M1538 0.933105C1532.13 1.06641 1515.07 2.26636 1500 3.33301C1258.4 21.8665 994.667 130.267 752.667 310.667C700.933 349.2 636.4 402.8 594.667 441.867C508.267 522.533 437.867 598.933 370.4 684.933C166.933 944.133 38.2667 1237.2 7.33333 1512C-8.80001 1656.13 3.19999 1792.13 42.5333 1909.33C76 2008.93 125.733 2090.93 194.667 2160C331.333 2296.93 530 2361.33 760 2343.2C1025.6 2322.4 1313.07 2196.13 1570.13 1987.47C1595.2 1967.07 1598.67 1963.2 1598.67 1955.33C1598.67 1947.87 1594.4 1943.87 1585.47 1942.93C1579.33 1942.4 1576.8 1943.33 1548.4 1956.4C1449.33 2002.13 1358.8 2032 1267.33 2049.07C1139.33 2073.07 1020.13 2069.73 914 2039.33C752 1992.93 629.733 1882.4 566.933 1726C542.933 1666 527.733 1599.2 521.333 1526C517.467 1481.73 518.4 1415.87 523.467 1364.67C549.6 1101.07 681.867 815.733 890.8 571.867C946.8 506.533 1016.8 436.533 1082.67 380C1279.6 211.067 1505.6 94.7998 1715.33 54.6665C1742.93 49.4663 1745.73 48.533 1750.53 44.533C1755.6 40.2664 1756.8 34.7998 1754 28.7998C1749.87 19.9998 1742.4 17.1997 1707.33 11.4663C1653.07 2.39966 1596 -1.2002 1538 0.933105Z" fill="#EA2127"/>
<path d="M1461.6 433.467C1409.2 442.133 1370.4 487.467 1370.27 540C1370.13 558.4 1373.2 572 1381.33 588.667C1395.2 617.467 1420.67 638.533 1451.73 646.933C1466.27 650.8 1491.2 650.8 1506 646.8C1544.67 636.4 1574 607.067 1584.8 568C1588.53 554.667 1588.27 526.667 1584.27 512.8C1572.67 472.267 1538.53 441.067 1498 434C1485.33 431.867 1472.67 431.6 1461.6 433.467Z" fill="white"/>
<path d="M1544 709.467C1539.2 710.133 1526 711.867 1514.67 713.467C1339.73 737.067 1176.27 796.133 1041.33 884.667C983.333 922.667 940.933 956.667 893.467 1003.2C826.533 1068.93 775.333 1136 732.4 1214C606.933 1441.73 600.667 1700.13 716.4 1864.4C750.8 1913.33 794 1951.2 847.333 1979.47C946.667 2032 1076 2042 1221.33 2008.53C1313.07 1987.2 1415.47 1947.87 1514.53 1895.6C1544.53 1879.87 1548 1876.67 1549.07 1864.8C1549.6 1858 1549.33 1857.2 1545.6 1853.33C1539.6 1847.47 1534.8 1848 1515.47 1856.53C1453.6 1884.27 1391.73 1901.33 1334.27 1906.8C1312.4 1908.8 1261.6 1907.73 1242.67 1904.67C1122 1885.87 1028.53 1809.07 978.667 1688C934.933 1581.6 928.667 1453.6 960.8 1324C1000.8 1162.53 1097.33 1016.67 1236 907.867C1326 837.333 1434 782.533 1554 746.667C1580.53 738.667 1588 733.733 1588 724C1588 712.4 1568.53 705.867 1544 709.467Z" fill="#EA2127"/>
<path d="M4018 1060.13C3942.27 1065.87 3886.4 1090.93 3860.27 1131.07C3849.07 1148.27 3844 1165.07 3844 1185.6C3844 1222.27 3860 1247.47 3897.2 1269.33C3918.67 1281.87 3948.8 1290.13 4023.33 1304C4058.13 1310.4 4075.87 1315.07 4083.6 1319.47C4094.53 1325.73 4096 1336.13 4087.33 1343.87C4079.87 1350.4 4064.4 1353.2 4035.87 1353.33C3990.93 1353.47 3945.73 1344.27 3901.33 1326.13C3893.07 1322.67 3885.73 1320.4 3885.2 1320.93C3883.87 1322.27 3837.33 1409.6 3837.33 1410.8C3837.33 1411.2 3840.8 1413.2 3845.07 1415.07C3878.27 1430 3918.8 1440.13 3968.67 1446.13C3984.13 1448 3998.4 1448.53 4032 1448.53C4070.13 1448.53 4077.6 1448.13 4094.4 1445.6C4148.13 1437.2 4186.53 1420.53 4212.8 1394.13C4224.93 1381.87 4232.8 1369.6 4238.27 1354C4241.73 1344.13 4242 1341.87 4242 1323.33C4242 1306.27 4241.6 1301.87 4238.93 1293.73C4234.93 1280.67 4224.93 1266.27 4213.33 1256.53C4184.4 1232.4 4155.07 1222.13 4074 1208.13C4029.87 1200.4 4018.27 1198 4008.67 1194.4C3987.73 1186.53 3990 1166.4 4012.4 1159.47C4047.33 1148.8 4116.4 1157.33 4167.87 1178.67C4173.33 1180.8 4177.87 1182.53 4178 1182.4C4178.27 1182.13 4188.67 1161.47 4201.2 1136.4L4223.87 1090.8L4210.27 1085.47C4157.87 1065.07 4083.6 1055.2 4018 1060.13Z" fill="white"/>
<path d="M1422.67 1254.67V1441.33H1600H1777.33V1392V1342.67H1676H1574.67V1205.33V1068H1498.67H1422.67V1254.67Z" fill="white"/>
<path d="M2067.6 1073.6C2060.13 1086.67 1874.67 1438.93 1874.67 1440.13C1874.67 1440.93 1904.4 1441.2 1951.47 1441.07L2028.4 1440.67L2043.33 1408.67L2058.13 1376.67L2144.13 1376.27L2230.13 1376L2245.2 1408.67L2260.4 1441.33H2338.93H2417.47L2405.07 1417.6C2398.27 1404.53 2354 1320.53 2306.67 1230.93L2220.67 1068H2145.73H2070.8L2067.6 1073.6ZM2168 1242L2187.87 1284.67L2145.07 1285.07C2121.47 1285.2 2102 1285.07 2101.6 1284.67C2100.93 1284.13 2112.67 1258.4 2137.07 1206.67L2144.27 1191.33L2146.13 1195.33C2147.2 1197.47 2157.07 1218.53 2168 1242Z" fill="white"/>
<path d="M2538.67 1254.67V1441.33L2607.73 1441.07L2676.67 1440.67L2677.33 1359.47L2678 1278.13L2726.67 1343.07L2775.33 1408L2808.53 1407.73L2841.87 1407.33L2890.53 1339.33L2939.33 1271.33L2940.13 1340C2940.53 1377.73 2941.07 1416 2941.2 1425.07L2941.33 1441.33L3010.4 1441.07L3079.33 1440.67V1407.6C3079.33 1389.47 3079.2 1305.6 3078.93 1221.33L3078.67 1068H3015.73H2952.67L2882 1166.67C2843.2 1220.8 2810.8 1265.07 2810 1264.8C2809.33 1264.67 2776.13 1220.27 2736.27 1166.27L2663.73 1068H2601.2H2538.67V1254.67Z" fill="white"/>
<path d="M3396.4 1069.6C3393.2 1074.8 3201.33 1439.33 3201.33 1440.27C3201.33 1440.8 3236 1441.2 3278.27 1441.07L3355.2 1440.67L3370 1408.67L3384.93 1376.67L3470.93 1376.27L3556.8 1376L3572 1408.67L3587.07 1441.33H3665.6C3708.93 1441.33 3744 1440.8 3743.73 1440.27C3743.6 1439.6 3699.2 1355.6 3645.33 1253.6L3547.33 1068H3472.4C3413.87 1068 3397.2 1068.4 3396.4 1069.6ZM3493.2 1238.67L3514.53 1284.67L3471.73 1285.07C3448.13 1285.2 3428.67 1285.07 3428.27 1284.67C3427.87 1284.4 3434.67 1268.93 3443.33 1250.4C3452 1231.87 3461.73 1211.07 3464.93 1204.13C3468.13 1197.33 3470.93 1191.87 3471.2 1192.13C3471.47 1192.4 3481.33 1213.33 3493.2 1238.67Z" fill="white"/>
<path d="M4434.67 1253.47C4380.8 1355.47 4336.53 1439.6 4336.27 1440.13C4336 1440.8 4369.73 1441.33 4413.07 1441.33H4490.27L4505.47 1408.67L4520.53 1376L4606.53 1376.27L4692.4 1376.67L4707.33 1408.67L4722.13 1440.67L4800.4 1441.07C4843.47 1441.2 4878.67 1440.93 4878.67 1440.27C4878.67 1439.73 4834.67 1355.87 4780.93 1254L4683.2 1068.67L4607.87 1068.27L4532.53 1068L4434.67 1253.47ZM4628.67 1239.07C4640.27 1263.87 4649.47 1284.4 4649.07 1284.67C4648.67 1285.07 4629.2 1285.2 4605.6 1285.07L4562.8 1284.67L4584.4 1238.4C4596.27 1212.93 4606.4 1192.53 4606.8 1193.07C4607.33 1193.6 4617.2 1214.27 4628.67 1239.07Z" fill="white"/>
<path d="M4944 1116.67V1165.33H5010H5076V1303.33V1441.33H5152H5228V1303.33V1165.33H5294H5360V1116.67V1068H5152H4944V1116.67Z" fill="white"/>
<path d="M4174 1691.07C4159.33 1696 4149.2 1704.93 4143.07 1718C4140 1724.8 4139.33 1727.73 4139.33 1737.33C4139.33 1747.6 4139.73 1749.6 4143.73 1757.6C4149.07 1768.4 4158.4 1777.33 4169.07 1781.6C4175.07 1784 4179.33 1784.53 4189.33 1784.53C4199.33 1784.53 4203.6 1784 4209.6 1781.6C4220.13 1777.33 4229.6 1768.4 4234.93 1757.73C4238.8 1749.87 4239.2 1747.73 4239.2 1737.33C4239.2 1726.93 4238.8 1724.8 4234.93 1717.07C4229.87 1706.67 4221.33 1698.4 4211.07 1693.73C4202 1689.6 4182.8 1688.27 4174 1691.07ZM4200.13 1706.8C4206.93 1708.93 4214.13 1715.07 4217.73 1721.73C4221.6 1729.2 4221.87 1745.07 4218.13 1752C4211.87 1763.87 4203.6 1768.67 4189.33 1768.67C4174.4 1768.67 4165.87 1763.33 4160.13 1750.67C4157.07 1743.87 4156.53 1734.27 4158.93 1726.13C4160.93 1719.47 4170.8 1709.2 4177.33 1707.07C4183.6 1705.07 4193.87 1704.93 4200.13 1706.8Z" fill="white"/>
<path d="M1676 1737.33V1784H1684.67H1693.33V1737.33V1690.67H1684.67H1676V1737.33Z" fill="white"/>
<path d="M1910.67 1737.33V1784H1919.33H1928L1928.27 1753.07L1928.67 1722.27L1953.73 1753.07L1978.8 1784H1986.13H1993.33V1737.33V1690.67H1984.67H1976L1975.73 1721.47L1975.33 1752.4L1950.27 1721.47L1925.2 1690.67H1918H1910.67V1737.33Z" fill="white"/>
<path d="M2198.67 1698V1705.2L2213.73 1705.6L2228.67 1706L2229.07 1744.93L2229.33 1784H2238H2246.67V1744.67V1705.33H2262H2277.33V1698V1690.67H2238H2198.67V1698Z" fill="white"/>
<path d="M2482.67 1737.33V1784H2517.33H2552V1776.67V1769.33H2526H2500V1756.67V1744L2522.4 1743.73L2544.67 1743.33L2545.07 1736.27L2545.47 1729.33H2522.8H2500V1717.33V1705.33H2525.33H2550.67V1698V1690.67H2516.67H2482.67V1737.33Z" fill="white"/>
<path d="M2762.67 1737.2V1784H2772H2781.33V1770.67V1757.33H2793.73L2806 1757.47L2815.07 1770.67L2824.13 1784H2833.33C2838.53 1784 2842.67 1783.73 2842.67 1783.47C2842.67 1783.07 2838.13 1776.4 2832.67 1768.53C2827.2 1760.67 2822.67 1753.87 2822.67 1753.47C2822.67 1753.07 2825.33 1751.07 2828.53 1749.2C2839.2 1742.67 2844 1727.2 2839.73 1713.2C2837.6 1705.73 2830.53 1698.27 2822.4 1694.53C2815.87 1691.6 2813.33 1691.33 2789.07 1690.93L2762.67 1690.4V1737.2ZM2814.53 1708.53C2820.53 1711.73 2822.93 1716.13 2822.93 1724.13C2822.8 1737.6 2816.8 1741.33 2795.33 1741.33H2781.33V1723.2V1704.93L2795.87 1705.73C2805.2 1706.13 2811.87 1707.2 2814.53 1708.53Z" fill="white"/>
<path d="M3052 1737.33V1784H3061.33H3070.67L3070.93 1753.6L3071.33 1723.07L3096 1753.47L3120.67 1784L3128 1783.6L3135.33 1783.33L3135.73 1736.93L3136 1690.67H3126.67H3117.33L3117.07 1721.07L3116.67 1751.47L3092 1721.07L3067.33 1690.67H3059.73H3052V1737.33Z" fill="white"/>
<path d="M3360.8 1734.93C3349.87 1759.33 3340.4 1780.4 3339.73 1781.73C3338.67 1784 3339.2 1784.13 3348 1783.73L3357.47 1783.33L3361.87 1773.33L3366.13 1763.33L3389.47 1762.93L3412.67 1762.67L3417.2 1773.33L3421.6 1784H3430.93C3436 1784 3440 1783.47 3439.73 1782.8C3439.6 1782.13 3430.13 1761.2 3418.8 1736.13L3398.27 1690.67H3389.47H3380.67L3360.8 1734.93ZM3397.73 1728.27C3401.87 1738 3405.33 1746.4 3405.33 1746.93C3405.33 1747.6 3398.13 1748 3389.2 1748C3374.4 1748 3373.07 1747.87 3373.87 1745.6C3376.8 1737.6 3388.67 1710.67 3389.33 1710.67C3389.73 1710.67 3393.47 1718.67 3397.73 1728.27Z" fill="white"/>
<path d="M3626.67 1698V1705.33H3642H3657.33V1744.67V1784H3666.67H3676V1744.67V1705.33H3691.33H3706.67V1698V1690.67H3666.67H3626.67V1698Z" fill="white"/>
<path d="M3910.67 1737.33V1784H3920H3929.33V1737.33V1690.67H3920H3910.67V1737.33Z" fill="white"/>
<path d="M4449.33 1737.33V1784H4458H4466.67V1753.2C4466.67 1726.13 4466.93 1722.53 4468.67 1724C4469.73 1724.93 4481.2 1738.8 4494.27 1754.8L4518 1784.13L4525.33 1783.73L4532.67 1783.33V1737.33V1691.33L4523.73 1690.93L4514.67 1690.53L4514.4 1721.2L4514 1751.87L4489.33 1721.33L4464.67 1690.8L4457.07 1690.67H4449.33V1737.33Z" fill="white"/>
<path d="M4760.27 1729.6C4750.67 1751.07 4741.33 1772.13 4739.47 1776.27L4736 1784H4745.2H4754.4L4758.8 1773.33L4763.2 1762.67L4786.4 1762.93L4809.73 1763.33L4814 1773.33L4818.27 1783.33L4827.87 1783.73C4833.2 1784 4837.33 1783.6 4837.07 1783.07C4836.67 1782.53 4827.2 1761.47 4815.87 1736.27L4795.33 1690.67H4786.53H4777.73L4760.27 1729.6ZM4794.27 1727.07C4798.13 1736 4801.6 1744.4 4802.13 1745.6C4802.93 1747.87 4801.6 1748 4786.27 1748H4769.6L4777.6 1729.33C4782 1719.07 4786 1710.67 4786.53 1710.67C4786.93 1710.67 4790.4 1718 4794.27 1727.07Z" fill="white"/>
<path d="M5040.27 1736.93L5040.67 1783.33L5073.73 1783.73L5106.67 1784V1776V1768H5082.67H5058.67V1729.33V1690.67H5049.33H5040L5040.27 1736.93Z" fill="white"/>
</g>
<defs>
<clipPath id="clip0_247_2">
<rect width="5360" height="2346.67" fill="white"/>
</clipPath>
</defs>
</svg>
