<svg width="5360" height="2346" viewBox="0 0 5360 2346" fill="none" xmlns="http://www.w3.org/2000/svg">
<path d="M1537.62 0.597203C1531.76 0.730537 1514.69 1.93044 1499.62 2.99711C1258.02 21.5304 994.291 129.931 752.291 310.331C700.558 348.864 636.025 402.464 594.291 441.531C507.891 522.197 437.491 598.597 370.025 684.597C166.558 943.797 37.8912 1236.86 6.95784 1511.66C-9.1755 1655.8 2.8245 1791.8 42.1578 1909C75.6245 2008.6 125.358 2090.6 194.291 2159.66C330.958 2296.6 529.624 2361 759.625 2342.86C1025.22 2322.06 1312.69 2195.8 1569.76 1987.13C1594.82 1966.73 1598.29 1962.86 1598.29 1955C1598.29 1947.53 1594.02 1943.53 1585.09 1942.6C1578.96 1942.06 1576.42 1943 1548.02 1956.06C1448.96 2001.8 1358.42 2031.66 1266.96 2048.73C1138.96 2072.73 1019.76 2069.4 913.625 2039C751.624 1992.6 629.358 1882.06 566.558 1725.66C542.558 1665.66 527.358 1598.86 520.958 1525.66C517.091 1481.4 518.025 1415.53 523.091 1364.33C549.225 1100.73 681.491 815.397 890.424 571.531C946.425 506.197 1016.42 436.197 1082.29 379.664C1279.22 210.731 1505.22 94.4639 1714.96 54.3306C1742.56 49.1306 1745.36 48.1971 1750.16 44.1971C1755.22 39.9304 1756.42 34.4639 1753.62 28.4639C1749.49 19.6639 1742.02 16.8637 1706.96 11.1304C1652.69 2.06374 1595.62 -1.53613 1537.62 0.597203Z" fill="#E81F23"/>
<path d="M1461.22 433.13C1408.82 441.797 1370.02 487.13 1369.89 539.664C1369.76 558.064 1372.82 571.664 1380.96 588.33C1394.82 617.13 1420.29 638.197 1451.36 646.597C1465.89 650.464 1490.82 650.464 1505.62 646.464C1544.29 636.064 1573.62 606.73 1584.42 567.664C1588.16 554.33 1587.89 526.33 1583.89 512.464C1572.29 471.93 1538.16 440.73 1497.62 433.664C1484.96 431.53 1472.29 431.264 1461.22 433.13Z" fill="#01A252"/>
<path d="M1543.62 709.13C1538.82 709.797 1525.62 711.53 1514.29 713.13C1339.36 736.73 1175.89 795.797 1040.96 884.33C982.958 922.33 940.558 956.33 893.091 1002.86C826.158 1068.6 774.958 1135.66 732.025 1213.66C606.558 1441.4 600.291 1699.8 716.025 1864.06C750.425 1913 793.625 1950.86 846.958 1979.13C946.291 2031.66 1075.62 2041.66 1220.96 2008.2C1312.69 1986.86 1415.09 1947.53 1514.16 1895.26C1544.16 1879.53 1547.62 1876.33 1548.69 1864.46C1549.22 1857.66 1548.96 1856.86 1545.22 1853C1539.22 1847.13 1534.42 1847.66 1515.09 1856.2C1453.22 1883.93 1391.36 1901 1333.89 1906.46C1312.02 1908.46 1261.22 1907.4 1242.29 1904.33C1121.62 1885.53 1028.16 1808.73 978.291 1687.66C934.558 1581.26 928.291 1453.26 960.425 1323.66C1000.42 1162.2 1096.96 1016.33 1235.62 907.53C1325.62 836.997 1433.62 782.197 1553.62 746.33C1580.16 738.33 1587.62 733.397 1587.62 723.664C1587.62 712.064 1568.16 705.53 1543.62 709.13Z" fill="#EA2127"/>
<path d="M4017.62 1059.8C3941.89 1065.53 3886.02 1090.6 3859.89 1130.73C3848.69 1147.93 3843.62 1164.73 3843.62 1185.26C3843.62 1221.93 3859.62 1247.13 3896.82 1269C3918.29 1281.53 3948.42 1289.8 4022.96 1303.66C4057.76 1310.06 4075.49 1314.73 4083.22 1319.13C4094.16 1325.4 4095.62 1335.8 4086.96 1343.53C4079.49 1350.06 4064.02 1352.86 4035.49 1353C3990.56 1353.13 3945.36 1343.93 3900.96 1325.8C3892.69 1322.33 3885.36 1320.06 3884.82 1320.6C3883.49 1321.93 3836.96 1409.26 3836.96 1410.46C3836.96 1410.86 3840.42 1412.86 3844.69 1414.73C3877.89 1429.66 3918.42 1439.8 3968.29 1445.8C3983.76 1447.66 3998.02 1448.2 4031.62 1448.2C4069.76 1448.2 4077.22 1447.8 4094.02 1445.26C4147.76 1436.86 4186.16 1420.2 4212.42 1393.8C4224.56 1381.53 4232.42 1369.26 4237.89 1353.66C4241.36 1343.8 4241.62 1341.53 4241.62 1323C4241.62 1305.93 4241.22 1301.53 4238.56 1293.4C4234.56 1280.33 4224.56 1265.93 4212.96 1256.2C4184.02 1232.06 4154.69 1221.8 4073.62 1207.8C4029.49 1200.06 4017.89 1197.66 4008.29 1194.06C3987.36 1186.2 3989.62 1166.06 4012.02 1159.13C4046.96 1148.46 4116.02 1157 4167.49 1178.33C4172.96 1180.46 4177.49 1182.2 4177.62 1182.06C4177.89 1181.8 4188.29 1161.13 4200.82 1136.06L4223.49 1090.46L4209.89 1085.13C4157.49 1064.73 4083.22 1054.86 4017.62 1059.8Z" fill="black"/>
<path d="M1422.29 1254.33V1441H1599.62H1776.96V1391.66V1342.33H1675.62H1574.29V1205V1067.66H1498.29H1422.29V1254.33Z" fill="black"/>
<path d="M2067.22 1073.26C2059.76 1086.33 1874.29 1438.6 1874.29 1439.8C1874.29 1440.6 1904.02 1440.86 1951.09 1440.73L2028.02 1440.33L2042.96 1408.33L2057.76 1376.33L2143.76 1375.93L2229.76 1375.66L2244.82 1408.33L2260.02 1441H2338.56H2417.09L2404.69 1417.26C2397.89 1404.2 2353.62 1320.2 2306.29 1230.6L2220.29 1067.66H2145.36H2070.42L2067.22 1073.26ZM2167.62 1241.66L2187.49 1284.33L2144.69 1284.73C2121.09 1284.86 2101.62 1284.73 2101.22 1284.33C2100.56 1283.8 2112.29 1258.06 2136.69 1206.33L2143.89 1191L2145.76 1195C2146.82 1197.13 2156.69 1218.2 2167.62 1241.66Z" fill="black"/>
<path d="M2538.29 1254.33V1441L2607.36 1440.73L2676.29 1440.33L2676.96 1359.13L2677.62 1277.8L2726.29 1342.73L2774.96 1407.66L2808.16 1407.4L2841.49 1407L2890.16 1339L2938.96 1271L2939.76 1339.66C2940.16 1377.4 2940.69 1415.66 2940.82 1424.73L2940.96 1441L3010.02 1440.73L3078.96 1440.33V1407.26C3078.96 1389.13 3078.82 1305.26 3078.56 1221L3078.29 1067.66H3015.36H2952.29L2881.62 1166.33C2842.82 1220.46 2810.42 1264.73 2809.62 1264.46C2808.96 1264.33 2775.76 1219.93 2735.89 1165.93L2663.36 1067.66H2600.82H2538.29V1254.33Z" fill="black"/>
<path d="M3396.02 1069.26C3392.82 1074.46 3200.96 1439 3200.96 1439.93C3200.96 1440.46 3235.62 1440.86 3277.89 1440.73L3354.82 1440.33L3369.62 1408.33L3384.56 1376.33L3470.56 1375.93L3556.42 1375.66L3571.62 1408.33L3586.69 1441H3665.22C3708.56 1441 3743.62 1440.46 3743.36 1439.93C3743.22 1439.26 3698.82 1355.26 3644.96 1253.26L3546.96 1067.66H3472.02C3413.49 1067.66 3396.82 1068.06 3396.02 1069.26ZM3492.82 1238.33L3514.16 1284.33L3471.36 1284.73C3447.76 1284.86 3428.29 1284.73 3427.89 1284.33C3427.49 1284.06 3434.29 1268.6 3442.96 1250.06C3451.62 1231.53 3461.36 1210.73 3464.56 1203.8C3467.76 1197 3470.56 1191.53 3470.82 1191.8C3471.09 1192.06 3480.96 1213 3492.82 1238.33Z" fill="black"/>
<path d="M4434.29 1253.13C4380.42 1355.13 4336.16 1439.26 4335.89 1439.8C4335.62 1440.46 4369.36 1441 4412.69 1441H4489.89L4505.09 1408.33L4520.16 1375.66L4606.16 1375.93L4692.02 1376.33L4706.96 1408.33L4721.76 1440.33L4800.02 1440.73C4843.09 1440.86 4878.29 1440.6 4878.29 1439.93C4878.29 1439.4 4834.29 1355.53 4780.56 1253.66L4682.82 1068.33L4607.49 1067.93L4532.16 1067.66L4434.29 1253.13ZM4628.29 1238.73C4639.89 1263.53 4649.09 1284.06 4648.69 1284.33C4648.29 1284.73 4628.82 1284.86 4605.22 1284.73L4562.42 1284.33L4584.02 1238.06C4595.89 1212.6 4606.02 1192.2 4606.42 1192.73C4606.96 1193.26 4616.82 1213.93 4628.29 1238.73Z" fill="black"/>
<path d="M4943.62 1116.33V1165H5009.63H5075.63V1303V1441H5151.63H5227.63V1303V1165H5293.63H5359.63V1116.33V1067.66H5151.63H4943.62V1116.33Z" fill="black"/>
<path d="M4173.62 1690.73C4158.96 1695.66 4148.82 1704.6 4142.69 1717.66C4139.62 1724.46 4138.96 1727.4 4138.96 1737C4138.96 1747.26 4139.36 1749.26 4143.36 1757.26C4148.69 1768.06 4158.02 1777 4168.69 1781.26C4174.69 1783.66 4178.96 1784.2 4188.96 1784.2C4198.96 1784.2 4203.22 1783.66 4209.22 1781.26C4219.76 1777 4229.22 1768.06 4234.56 1757.4C4238.42 1749.53 4238.82 1747.4 4238.82 1737C4238.82 1726.6 4238.42 1724.46 4234.56 1716.73C4229.49 1706.33 4220.96 1698.06 4210.69 1693.4C4201.62 1689.26 4182.42 1687.93 4173.62 1690.73ZM4199.76 1706.46C4206.56 1708.6 4213.76 1714.73 4217.36 1721.4C4221.22 1728.86 4221.49 1744.73 4217.76 1751.66C4211.49 1763.53 4203.22 1768.33 4188.96 1768.33C4174.02 1768.33 4165.49 1763 4159.76 1750.33C4156.69 1743.53 4156.16 1733.93 4158.56 1725.8C4160.56 1719.13 4170.42 1708.86 4176.96 1706.73C4183.22 1704.73 4193.49 1704.6 4199.76 1706.46Z" fill="black"/>
<path d="M1675.62 1737V1783.66H1684.29H1692.96V1737V1690.33H1684.29H1675.62V1737Z" fill="black"/>
<path d="M1910.29 1737V1783.66H1918.96H1927.62L1927.89 1752.73L1928.29 1721.93L1953.36 1752.73L1978.42 1783.66H1985.76H1992.96V1737V1690.33H1984.29H1975.62L1975.36 1721.13L1974.96 1752.06L1949.89 1721.13L1924.82 1690.33H1917.62H1910.29V1737Z" fill="black"/>
<path d="M2198.29 1697.66V1704.86L2213.36 1705.26L2228.29 1705.66L2228.69 1744.6L2228.96 1783.66H2237.62H2246.29V1744.33V1705H2261.62H2276.96V1697.66V1690.33H2237.62H2198.29V1697.66Z" fill="black"/>
<path d="M2482.29 1737V1783.66H2516.96H2551.62V1776.33V1769H2525.62H2499.62V1756.33V1743.66L2522.02 1743.4L2544.29 1743L2544.69 1735.93L2545.09 1729H2522.42H2499.62V1717V1705H2524.96H2550.29V1697.66V1690.33H2516.29H2482.29V1737Z" fill="black"/>
<path d="M2762.29 1736.86V1783.66H2771.62H2780.96V1770.33V1757H2793.36L2805.62 1757.13L2814.69 1770.33L2823.76 1783.66H2832.96C2838.16 1783.66 2842.29 1783.4 2842.29 1783.13C2842.29 1782.73 2837.76 1776.06 2832.29 1768.2C2826.82 1760.33 2822.29 1753.53 2822.29 1753.13C2822.29 1752.73 2824.96 1750.73 2828.16 1748.86C2838.82 1742.33 2843.62 1726.86 2839.36 1712.86C2837.22 1705.4 2830.16 1697.93 2822.02 1694.2C2815.49 1691.26 2812.96 1691 2788.69 1690.6L2762.29 1690.06V1736.86ZM2814.16 1708.2C2820.16 1711.4 2822.56 1715.8 2822.56 1723.8C2822.42 1737.26 2816.42 1741 2794.96 1741H2780.96V1722.86V1704.6L2795.49 1705.4C2804.82 1705.8 2811.49 1706.86 2814.16 1708.2Z" fill="black"/>
<path d="M3051.62 1737V1783.66H3060.96H3070.29L3070.56 1753.26L3070.96 1722.73L3095.62 1753.13L3120.29 1783.66L3127.62 1783.26L3134.96 1783L3135.36 1736.6L3135.62 1690.33H3126.29H3116.96L3116.69 1720.73L3116.29 1751.13L3091.62 1720.73L3066.96 1690.33H3059.36H3051.62V1737Z" fill="black"/>
<path d="M3360.42 1734.6C3349.49 1759 3340.02 1780.06 3339.36 1781.4C3338.29 1783.66 3338.82 1783.8 3347.62 1783.4L3357.09 1783L3361.49 1773L3365.76 1763L3389.09 1762.6L3412.29 1762.33L3416.82 1773L3421.22 1783.66H3430.56C3435.62 1783.66 3439.62 1783.13 3439.36 1782.46C3439.22 1781.8 3429.76 1760.86 3418.42 1735.8L3397.89 1690.33H3389.09H3380.29L3360.42 1734.6ZM3397.36 1727.93C3401.49 1737.66 3404.96 1746.06 3404.96 1746.6C3404.96 1747.26 3397.76 1747.66 3388.82 1747.66C3374.02 1747.66 3372.69 1747.53 3373.49 1745.26C3376.42 1737.26 3388.29 1710.33 3388.96 1710.33C3389.36 1710.33 3393.09 1718.33 3397.36 1727.93Z" fill="black"/>
<path d="M3626.29 1697.66V1705H3641.62H3656.96V1744.33V1783.66H3666.29H3675.62V1744.33V1705H3690.96H3706.29V1697.66V1690.33H3666.29H3626.29V1697.66Z" fill="black"/>
<path d="M3910.29 1737V1783.66H3919.62H3928.96V1737V1690.33H3919.62H3910.29V1737Z" fill="black"/>
<path d="M4448.96 1737V1783.66H4457.62H4466.29V1752.86C4466.29 1725.8 4466.56 1722.2 4468.29 1723.66C4469.36 1724.6 4480.82 1738.46 4493.89 1754.46L4517.62 1783.8L4524.96 1783.4L4532.29 1783V1737V1691L4523.36 1690.6L4514.29 1690.2L4514.02 1720.86L4513.62 1751.53L4488.96 1721L4464.29 1690.46L4456.69 1690.33H4448.96V1737Z" fill="black"/>
<path d="M4759.89 1729.26C4750.29 1750.73 4740.96 1771.8 4739.09 1775.93L4735.62 1783.66H4744.82H4754.02L4758.42 1773L4762.82 1762.33L4786.02 1762.6L4809.36 1763L4813.62 1773L4817.89 1783L4827.49 1783.4C4832.82 1783.66 4836.96 1783.26 4836.69 1782.73C4836.29 1782.2 4826.82 1761.13 4815.49 1735.93L4794.96 1690.33H4786.16H4777.36L4759.89 1729.26ZM4793.89 1726.73C4797.76 1735.66 4801.22 1744.06 4801.76 1745.26C4802.56 1747.53 4801.22 1747.66 4785.89 1747.66H4769.22L4777.22 1729C4781.62 1718.73 4785.62 1710.33 4786.16 1710.33C4786.56 1710.33 4790.02 1717.66 4793.89 1726.73Z" fill="black"/>
<path d="M5039.89 1736.6L5040.29 1783L5073.36 1783.4L5106.29 1783.66V1775.66V1767.66H5082.29H5058.29V1729V1690.33H5048.96H5039.62L5039.89 1736.6Z" fill="black"/>
</svg>
